#!OML:ASF F:\VICON\USERDATA\INSTALL\rory3\rory3.ASF
:FULLY-SPECIFIED
:DEGREES
134
root 13.6608 17.8206 -0.686566 -1.06507 5.45779 5.23611
lowerback 10.4729 -0.177229 -5.63501
upperback 1.09812 -0.908236 -0.509743
thorax -4.64965 -0.345511 2.77052
lowerneck -22.3727 -6.37114 -12.8057
upperneck 27.0768 -7.49741 9.70399
head 13.8397 -3.30115 4.64558
rclavicle -1.8313e-014 -1.0138e-014
rhumerus -36.6477 -15.243 -78.2471
rradius 28.9272
rwrist 7.87116
rhand -14.4289 11.6422
rfingers 7.12502
rthumb 11.7156 -18.0102
lclavicle -1.8313e-014 -1.0138e-014
lhumerus -25.0339 3.67888 81.0642
lradius 35.6094
lwrist -4.38887
lhand -18.2073 29.0149
lfingers 7.12502
lthumb 8.07026 58.8408
rfemur -25.8726 -2.15864 15.9066
rtibia 22.6829
rfoot -5.02795 -2.89804
rtoes -5.39515
lfemur 8.04218 0.410113 -28.6564
ltibia 10.1649
lfoot -11.2813 -6.35957
ltoes -5.91548
135
root 13.6551 17.8147 -0.581606 -1.03992 5.60062 5.09811
lowerback 10.492 -0.232279 -5.52235
upperback 1.10742 -0.967241 -0.471464
thorax -4.64636 -0.37667 2.75573
lowerneck -22.4913 -6.38894 -12.7682
upperneck 27.1235 -7.53267 9.72482
head 13.8888 -3.30693 4.6418
rclavicle -7.85199e-015 -3.16068e-014
rhumerus -36.6065 -15.4714 -78.1484
rradius 28.5388
rwrist 8.05664
rhand -14.7431 11.6207
rfingers 7.12502
rthumb 11.4125 -18.0487
lclavicle -7.85199e-015 -3.16068e-014
lhumerus -24.8309 3.69278 81.0664
lradius 35.6396
lwrist -4.39108
lhand -17.9489 29.1932
lfingers 7.12502
lthumb 8.31963 59.0094
rfemur -25.8215 -1.95069 16.0565
rtibia 21.9293
rfoot -5.73881 -3.2517
rtoes -7.16773
lfemur 8.40107 0.284794 -28.4452
ltibia 10.1037
lfoot -11.402 -6.41127
ltoes -5.96241
136
root 13.6507 17.8097 -0.474927 -0.961663 5.6102 4.92545
lowerback 10.4663 -0.244878 -5.38581
upperback 1.05043 -0.966385 -0.42531
thorax -4.69337 -0.376127 2.72722
lowerneck -22.5011 -6.3919 -12.6753
upperneck 27.1666 -7.5523 9.65592
head 13.9039 -3.31483 4.59491
rclavicle 1.40392e-014 -2.26615e-014
rhumerus -36.743 -15.7694 -77.9579
rradius 28.265
rwrist 8.28028
rhand -14.609 10.7067
rfingers 7.12502
rthumb 11.5418 -18.9555
lclavicle 1.40392e-014 -2.26615e-014
lhumerus -24.7568 3.5974 81.0885
lradius 35.7439
lwrist -4.33069
lhand -18.1485 29.7217
lfingers 7.12502
lthumb 8.12701 59.5454
rfemur -25.8529 -1.95964 16.3644
rtibia 21.4439
rfoot -6.27234 -3.56327
rtoes -8.86175
lfemur 8.74089 0.120169 -28.237
ltibia 10.0356
lfoot -11.4701 -6.25961
ltoes -6.12304
137
root 13.6493 17.7986 -0.369087 -0.979112 5.48284 5.20662
lowerback 10.4806 -0.193029 -5.62287
upperback 1.08637 -0.930606 -0.546844
thorax -4.66515 -0.356407 2.72814
lowerneck -22.5282 -6.40217 -12.6473
upperneck 27.1307 -7.59846 9.73527
head 13.9036 -3.32027 4.61244
rclavicle -2.38293e-014 -1.39149e-015
rhumerus -36.8842 -15.8433 -77.9615
rradius 28.2675
rwrist 8.27024
rhand -14.4788 10.2027
rfingers 7.12502
rthumb 11.6674 -19.4525
lclavicle -2.38293e-014 -1.39149e-015
lhumerus -24.6121 3.41767 81.0806
lradius 35.8252
lwrist -4.28561
lhand -18.315 29.7243
lfingers 7.12502
lthumb 7.96634 59.5542
rfemur -25.8588 -2.28889 16.3044
rtibia 21.2451
rfoot -6.50011 -3.63771
rtoes -9.70661
lfemur 9.27329 0.0999754 -28.5559
ltibia 9.87621
lfoot -11.4755 -6.01926
ltoes -7.03629
138
root 13.6453 17.7907 -0.26832 -1.00349 5.44066 5.25417
lowerback 10.5831 -0.186273 -5.65534
upperback 1.10483 -0.932306 -0.559568
thorax -4.7025 -0.355987 2.73467
lowerneck -22.6271 -6.42808 -12.699
upperneck 27.1461 -7.63199 9.81719
head 13.9428 -3.32688 4.64863
rclavicle -1.66482e-015 -2.5842e-015
rhumerus -36.9301 -15.8649 -77.9395
rradius 28.1697
rwrist 8.37811
rhand -14.6079 10.1555
rfingers 7.12502
rthumb 11.5429 -19.5066
lclavicle -1.66482e-015 -2.5842e-015
lhumerus -24.4591 3.44214 81.1184
lradius 35.7679
lwrist -4.42682
lhand -18.2971 28.5338
lfingers 7.12502
lthumb 7.98363 58.363
rfemur -25.9285 -2.60931 16.4944
rtibia 21.3025
rfoot -6.27539 -3.70811
rtoes -9.94788
lfemur 9.8408 -0.0154497 -28.6119
ltibia 9.54165
lfoot -11.3017 -5.76303
ltoes -8.00793
